<svg width="376" height="425" viewBox="0 0 376 425" fill="none" xmlns="http://www.w3.org/2000/svg">
<path fill-rule="evenodd" clip-rule="evenodd" d="M85.5592 147.285L83.2462 148.258L80.8604 149.247L78.404 150.257L75.8794 151.293L73.2894 152.359L70.6372 153.46L67.9267 154.601L65.1619 155.784L62.348 157.017L59.4903 158.301L56.5952 159.642L53.6693 161.043L50.7197 162.509L47.7541 164.042L44.7811 165.646L41.8099 167.323L38.8505 169.077L35.9133 170.909L33.0097 172.821L30.1515 174.814L27.3509 176.89L24.6209 179.047L21.9746 181.286L19.4256 183.605L16.9876 186.002L14.6742 188.476L12.4986 191.022L10.4731 193.636L8.60924 196.313L6.91757 199.049L5.40742 201.836L4.08689 204.669L2.96294 207.54L2.04141 210.442L1.32678 213.367L0.822356 216.307L0.530222 219.254L0.451058 222.201L0.584319 225.138L0.928104 228.059L1.47917 230.956L2.233 233.821L3.18377 236.647L4.32434 239.428L5.6464 242.157L7.14047 244.83L8.79592 247.442L10.6011 249.989L12.5435 252.468L14.6098 254.877L16.7857 257.214L19.0567 259.48L21.4075 261.674L23.8227 263.798L26.2865 265.855L28.7833 267.849L31.2975 269.783L33.8137 271.663L36.317 273.494L38.793 275.285L41.2281 277.041L43.6094 278.771L45.925 280.483L48.164 282.187L50.317 283.891L52.3755 285.604L54.3325 287.337L56.1825 289.097L57.9213 290.894L59.5463 292.736L61.0564 294.631L62.4521 296.588L63.7351 298.611L64.9089 300.708L65.9781 302.884L66.9486 305.141L67.8278 307.484L68.6238 309.914L69.3458 312.432L70.0037 315.037L70.6083 317.728L71.1705 320.502L71.7018 323.356L72.214 326.285L72.7192 329.284L73.2292 332.344L73.7553 335.46L74.3085 338.624L74.8989 341.826L75.536 345.06L76.2285 348.316L76.9843 351.586L77.8103 354.862L78.7124 358.135L79.6958 361.397L80.7643 364.642L81.921 367.861L83.168 371.05L84.5074 374.201L85.9404 377.307L87.4682 380.364L89.0913 383.364L90.8099 386.302L92.6238 389.171L94.5324 391.966L96.5348 394.681L98.6298 397.311L100.816 399.849L103.092 402.291L105.454 404.631L107.903 406.864L110.433 408.984L113.043 410.987L115.73 412.868L118.49 414.622L121.319 416.246L124.213 417.735L127.169 419.086L130.182 420.295L133.246 421.361L136.358 422.281L139.512 423.053L142.703 423.675L145.926 424.148L149.176 424.47L152.446 424.642L155.731 424.664L159.027 424.538L162.326 424.264L165.625 423.846L168.918 423.286L172.199 422.585L175.464 421.748L178.707 420.778L181.924 419.678L185.111 418.453L188.262 417.107L191.374 415.643L194.443 414.067L197.466 412.384L200.438 410.597L203.357 408.712L206.22 406.733L209.023 404.666L211.765 402.514L214.444 400.283L217.056 397.978L219.601 395.603L222.076 393.162L224.481 390.662L226.813 388.105L229.073 385.498L231.258 382.845L233.37 380.15L235.407 377.42L237.369 374.658L239.257 371.87L241.071 369.061L242.812 366.239L244.482 363.41L246.083 360.582L247.618 357.764L249.09 354.965L250.504 352.196L251.865 349.466L253.18 346.787L254.454 344.171L255.695 341.628L256.914 339.172L258.118 336.813L259.318 334.564L260.524 332.432L261.747 330.428L262.997 328.557L264.284 326.826L265.618 325.238L267.009 323.795L268.467 322.498L270 321.348L271.616 320.341L273.323 319.476L275.128 318.746L277.035 318.146L279.051 317.669L281.178 317.307L283.42 317.049L285.777 316.886L288.249 316.807L290.836 316.798L293.534 316.847L296.34 316.94L299.248 317.064L302.253 317.205L305.345 317.347L308.516 317.476L311.755 317.578L315.05 317.638L318.389 317.643L321.759 317.58L325.144 317.435L328.529 317.197L331.898 316.855L335.235 316.398L338.523 315.817L341.746 315.105L344.886 314.255L347.926 313.262L350.85 312.122L353.643 310.832L356.289 309.391L358.774 307.8L361.085 306.06L363.209 304.174L365.136 302.146L366.856 299.983L368.362 297.691L369.649 295.277L370.711 292.751L371.546 290.122L372.154 287.401L372.535 284.599L372.694 281.727L372.634 278.796L372.362 275.819L371.886 272.807L371.215 269.772L370.36 266.724L369.333 263.676L368.146 260.637L366.816 257.617L365.357 254.626L363.789 251.672L362.132 248.764L360.406 245.909L358.631 243.113L356.831 240.381L355.025 237.715L353.236 235.12L351.482 232.594L349.783 230.139L348.156 227.751L346.618 225.43L345.182 223.171L343.865 220.97L342.678 218.82L341.634 216.717L340.744 214.654L340.016 212.622L339.458 210.615L339.076 208.623L338.874 206.639L338.854 204.653L339.017 202.656L339.361 200.641L339.882 198.598L340.575 196.519L341.434 194.397L342.449 192.223L343.61 189.993L344.905 187.699L346.322 185.337L347.845 182.903L349.46 180.394L351.15 177.807L352.898 175.142L354.687 172.398L356.5 169.576L358.316 166.68L360.12 163.71L361.893 160.673L363.616 157.572L365.274 154.414L366.849 151.206L368.326 147.955L369.69 144.669L370.927 141.357L372.024 138.029L372.969 134.694L373.753 131.362L374.366 128.044L374.801 124.749L375.051 121.488L375.111 118.271L374.979 115.107L374.651 112.007L374.129 108.98L373.411 106.033L372.501 103.175L371.401 100.414L370.116 97.7558L368.652 95.2065L367.014 92.7709L365.212 90.4533L363.254 88.2566L361.148 86.1829L358.905 84.2332L356.536 82.4073L354.053 80.7039L351.467 79.1206L348.79 77.6541L346.035 76.2999L343.214 75.0528L340.341 73.9057L337.427 72.8502L334.487 71.877L331.533 70.9753L328.578 70.134L325.633 69.341L322.708 68.5841L319.814 67.851L316.959 67.1297L314.148 66.4084L311.389 65.6762L308.684 64.9227L306.037 64.1378L303.451 63.3118L300.926 62.4355L298.463 61.5004L296.061 60.4984L293.719 59.4225L291.434 58.2666L289.204 57.0256L287.023 55.6958L284.887 54.2745L282.79 52.7607L280.727 51.1543L278.69 49.457L276.673 47.6715L274.668 45.8021L272.669 43.8541L270.666 41.8344L268.654 39.7507L266.625 37.612L264.572 35.4282L262.489 33.21L260.369 30.9691L258.208 28.7176L256.001 26.4683L253.742 24.2342L251.43 22.0288L249.061 19.8658L246.633 17.7585L244.145 15.7207L241.597 13.7655L238.989 11.906L236.323 10.1545L233.6 8.52319L230.824 7.02327L227.998 5.66536L225.126 4.45923L222.212 3.41376L219.262 2.53684L216.282 1.83539L213.278 1.31528L210.257 0.981175L207.224 0.836729L204.187 0.884399L201.154 1.12545L198.131 1.56006L195.126 2.18718L192.145 3.00467L189.196 4.00927L186.285 5.19664L183.418 6.56137L180.602 8.09711L177.842 9.79652L175.143 11.6514L172.509 13.6527L169.945 15.7906L167.454 18.0546L165.039 20.4338L162.701 22.9167L160.442 25.4916L158.263 28.1469L156.163 30.8718L154.144 33.656L152.205 36.4897L150.344 39.3639L148.561 42.2703L146.855 45.2009L145.223 48.1485L143.665 51.1061L142.178 54.0673L140.759 57.0262L139.407 59.9772L138.12 62.915L136.893 65.8345L135.725 68.7312L134.612 71.6009L133.552 74.4397L132.541 77.2443L131.577 80.0116L130.655 82.7388L129.773 85.4234L128.928 88.0628L128.116 90.6547L127.333 93.197L126.575 95.6873L125.838 98.1238L125.119 100.505L124.413 102.828L123.715 105.092L123.021 107.295L122.327 109.436L121.627 111.514L120.918 113.528L120.193 115.477L119.448 117.361L118.679 119.18L117.881 120.934L117.048 122.623L116.177 124.248L115.262 125.811L114.3 127.313L113.287 128.756L112.218 130.141L111.091 131.472L109.901 132.751L108.645 133.981L107.322 135.165L105.927 136.307L104.46 137.41L102.919 138.48L101.301 139.519L99.6067 140.532L97.8342 141.524L95.9833 142.498L94.0538 143.461L92.0461 144.416L89.9604 145.369L87.7978 146.324L85.5592 147.285Z" fill="url(#paint0_linear_102_2972)"/>
<defs>
<linearGradient id="paint0_linear_102_2972" x1="458.648" y1="128.189" x2="-73.5897" y2="255.913" gradientUnits="userSpaceOnUse">
<stop stop-color="#DB77FE"/>
<stop offset="1" stop-color="#52027A"/>
</linearGradient>
</defs>
</svg>
