<svg width="512" height="530" viewBox="0 0 512 530" fill="none" xmlns="http://www.w3.org/2000/svg">
<path fill-rule="evenodd" clip-rule="evenodd" d="M379.933 153.264L383.168 153.825L386.5 154.386L389.929 154.952L393.452 155.532L397.067 156.13L400.772 156.755L404.563 157.413L408.436 158.11L412.386 158.855L416.406 159.653L420.492 160.512L424.634 161.44L428.825 162.442L433.057 163.526L437.318 164.697L441.6 165.963L445.888 167.33L450.171 168.803L454.435 170.388L458.665 172.09L462.846 173.913L466.961 175.862L470.993 177.939L474.924 180.147L478.738 182.487L482.414 184.961L485.936 187.568L489.287 190.306L492.451 193.172L495.412 196.163L498.157 199.273L500.674 202.497L502.951 205.827L504.979 209.255L506.75 212.774L508.258 216.374L509.497 220.046L510.465 223.779L511.159 227.563L511.579 231.388L511.729 235.242L511.61 239.116L511.229 242.998L510.593 246.878L509.71 250.746L508.592 254.592L507.249 258.408L505.697 262.186L503.95 265.916L502.024 269.594L499.937 273.212L497.708 276.767L495.357 280.255L492.903 283.672L490.367 287.018L487.77 290.293L485.133 293.497L482.478 296.632L479.826 299.702L477.196 302.711L474.608 305.665L472.081 308.57L469.632 311.433L467.279 314.262L465.035 317.067L462.915 319.856L460.93 322.639L459.089 325.426L457.401 328.227L455.871 331.053L454.503 333.913L453.299 336.817L452.259 339.773L451.379 342.791L450.656 345.879L450.082 349.042L449.65 352.287L449.35 355.618L449.17 359.04L449.098 362.554L449.118 366.162L449.218 369.864L449.38 373.659L449.588 377.543L449.826 381.514L450.076 385.565L450.321 389.692L450.546 393.887L450.735 398.144L450.874 402.453L450.949 406.808L450.947 411.199L450.858 415.617L450.67 420.055L450.376 424.502L449.968 428.952L449.44 433.396L448.788 437.827L448.007 442.237L447.094 446.619L446.045 450.964L444.858 455.265L443.531 459.515L442.062 463.706L440.451 467.829L438.697 471.879L436.8 475.846L434.759 479.724L432.576 483.506L430.252 487.183L427.788 490.748L425.185 494.194L422.447 497.514L419.575 500.701L416.572 503.747L413.443 506.648L410.191 509.396L406.82 511.986L403.335 514.413L399.742 516.671L396.045 518.758L392.251 520.668L388.366 522.398L384.396 523.947L380.349 525.312L376.23 526.491L372.048 527.484L367.81 528.291L363.523 528.912L359.194 529.347L354.832 529.599L350.443 529.67L346.035 529.561L341.615 529.277L337.19 528.82L332.768 528.193L328.354 527.402L323.956 526.45L319.58 525.343L315.232 524.084L310.917 522.679L306.642 521.133L302.41 519.451L298.228 517.638L294.099 515.701L290.029 513.643L286.021 511.471L282.078 509.19L278.205 506.806L274.404 504.324L270.679 501.75L267.031 499.09L263.464 496.349L259.98 493.534L256.58 490.651L253.267 487.706L250.04 484.706L246.902 481.659L243.852 478.572L240.891 475.455L238.018 472.32L235.233 469.178L232.533 466.043L229.916 462.927L227.378 459.847L224.914 456.818L222.521 453.857L220.19 450.98L217.914 448.206L215.686 445.553L213.494 443.038L211.329 440.675L209.181 438.479L207.038 436.461L204.888 434.631L202.72 432.998L200.522 431.567L198.282 430.343L195.99 429.326L193.633 428.518L191.202 427.915L188.687 427.515L186.079 427.31L183.369 427.294L180.55 427.457L177.617 427.787L174.565 428.271L171.389 428.896L168.089 429.644L164.664 430.499L161.114 431.442L157.443 432.454L153.654 433.515L149.753 434.604L145.749 435.699L141.65 436.781L137.467 437.825L133.211 438.812L128.897 439.721L124.539 440.53L120.154 441.221L115.758 441.773L111.369 442.171L107.006 442.396L102.689 442.435L98.4362 442.274L94.2682 441.9L90.2046 441.306L86.2649 440.481L82.468 439.421L78.8322 438.122L75.3749 436.582L72.1124 434.802L69.0596 432.783L66.23 430.53L63.6354 428.05L61.2857 425.351L59.189 422.442L57.3513 419.336L55.7762 416.046L54.4656 412.585L53.4188 408.97L52.6333 405.216L52.1044 401.341L51.8254 397.362L51.788 393.295L51.9819 389.159L52.3951 384.971L53.0138 380.748L53.8222 376.508L54.8018 372.266L55.9317 368.041L57.1895 363.847L58.5508 359.7L59.9904 355.615L61.4823 351.603L63.0003 347.675L64.5184 343.84L66.0114 340.105L67.4551 336.476L68.827 332.955L70.1058 329.544L71.271 326.242L72.303 323.049L73.1838 319.961L73.8962 316.973L74.4247 314.081L74.7554 311.277L74.8764 308.554L74.7777 305.903L74.4516 303.314L73.8927 300.776L73.0982 298.279L72.0673 295.811L70.802 293.359L69.3067 290.912L67.588 288.459L65.6549 285.986L63.5188 283.483L61.1928 280.94L58.6924 278.345L56.0345 275.689L53.2378 272.964L50.3224 270.163L47.3097 267.278L44.2218 264.306L41.082 261.241L37.9138 258.081L34.7412 254.826L31.5883 251.474L28.479 248.027L25.4369 244.488L22.4852 240.86L19.6462 237.149L16.9412 233.361L14.3905 229.502L12.0133 225.581L9.82709 221.608L7.84805 217.59L6.09063 213.54L4.56759 209.467L3.2899 205.383L2.26667 201.299L1.50517 197.228L1.01074 193.179L0.786856 189.166L0.83514 185.199L1.15535 181.288L1.74547 177.445L2.60175 173.679L3.71878 169.999L5.08953 166.413L6.70544 162.93L8.55651 159.554L10.6314 156.292L12.9173 153.148L15.4003 150.124L18.0653 147.224L20.8964 144.446L23.8772 141.79L26.9909 139.255L30.2201 136.837L33.5463 134.531L36.9501 132.33L40.4121 130.226L43.9127 128.209L47.4328 126.268L50.9543 124.393L54.46 122.569L57.934 120.785L61.3624 119.026L64.7329 117.282L68.0356 115.538L71.2621 113.783L74.4054 112.005L77.4597 110.193L80.4209 108.334L83.2859 106.419L86.0532 104.436L88.7225 102.377L91.2953 100.232L93.7741 97.9953L96.1633 95.6596L98.4682 93.2206L100.696 90.6751L102.854 88.0214L104.951 85.2595L106.997 82.3909L109.003 79.419L110.98 76.3484L112.939 73.1856L114.891 69.9384L116.849 66.616L118.824 63.2292L120.827 59.7897L122.87 56.3105L124.963 52.8057L127.116 49.2898L129.338 45.7786L131.637 42.2881L134.022 38.8348L136.497 35.4355L139.07 32.107L141.743 28.8663L144.521 25.7299L147.404 22.7142L150.395 19.8351L153.494 17.1077L156.697 14.5467L160.004 12.1656L163.411 9.97728L166.914 7.99321L170.506 6.22395L174.183 4.67875L177.937 3.36552L181.761 2.29088L185.646 1.46001L189.584 0.876642L193.565 0.543048L197.581 0.460076L201.621 0.627007L205.677 1.04171L209.737 1.7006L213.793 2.59868L217.835 3.72957L221.853 5.08555L225.84 6.65761L229.786 8.43564L233.683 10.4082L237.525 12.563L241.304 14.8868L245.015 17.3656L248.652 19.9849L252.211 22.7301L255.688 25.5876L259.081 28.544L262.387 31.5871L265.604 34.705L268.732 37.8866L271.769 41.1216L274.716 44.4002L277.572 47.713L280.339 51.0514L283.018 54.4071L285.609 57.7722L288.115 61.1392L290.537 64.501L292.878 67.8509L295.14 71.1825L297.327 74.4903L299.44 77.7688L301.484 81.0135L303.461 84.2198L305.374 87.3833L307.228 90.4999L309.026 93.5656L310.772 96.5766L312.471 99.5288L314.126 102.419L315.743 105.243L317.327 107.997L318.882 110.678L320.414 113.283L321.929 115.809L323.432 118.252L324.929 120.611L326.426 122.884L327.929 125.067L329.445 127.16L330.979 129.161L332.537 131.07L334.126 132.887L335.751 134.611L337.419 136.243L339.135 137.785L340.905 139.237L342.734 140.602L344.627 141.883L346.59 143.082L348.625 144.203L350.738 145.249L352.933 146.226L355.213 147.136L357.58 147.986L360.039 148.78L362.59 149.524L365.236 150.223L367.979 150.884L370.82 151.512L373.759 152.114L376.796 152.696L379.933 153.264Z" fill="url(#paint0_linear_102_2971)"/>
<defs>
<linearGradient id="paint0_linear_102_2971" x1="-101.313" y1="238.473" x2="614.771" y2="244.777" gradientUnits="userSpaceOnUse">
<stop stop-color="#DB77FE"/>
<stop offset="1" stop-color="#52027A"/>
</linearGradient>
</defs>
</svg>
