<svg width="455" height="545" viewBox="0 0 455 545" fill="none" xmlns="http://www.w3.org/2000/svg">
<path d="M142.077 46.8066C142.077 72.0066 121.477 92.6066 96.277 93.0066C79.077 93.0066 61.877 93.0066 44.677 93.0066V121.007C44.677 148.407 0.876953 148.407 0.876953 121.007C0.876953 87.8066 0.876953 54.4066 0.876953 21.0066C0.876953 7.40657 11.677 0.606558 22.477 0.606558H95.477C120.677 0.606558 142.077 20.8066 142.077 46.8066ZM95.677 44.4066C78.677 44.4066 61.677 44.4066 44.677 44.4066V49.0066C61.677 49.0066 78.677 49.0066 95.677 49.0066C97.077 49.0066 98.277 48.2066 98.277 46.6066C98.077 45.2066 97.077 44.4066 95.677 44.4066ZM199.385 0.606558H249.185C251.385 0.606558 253.185 0.806555 254.985 1.00656C264.785 2.40656 273.585 5.80656 281.785 14.2066C289.985 22.4066 295.385 35.0066 295.385 46.8066V94.4066C295.385 106.207 289.985 118.807 281.785 127.007C273.585 135.407 264.785 139.007 254.985 140.207C253.185 140.607 251.385 140.607 249.185 140.607H199.385C197.185 140.607 195.385 140.607 193.585 140.207C183.785 139.007 174.985 135.407 166.785 127.007C158.385 118.807 153.185 106.207 153.185 94.4066V46.8066C153.185 35.0066 158.385 22.4066 166.785 14.2066C174.985 5.80656 183.785 2.40656 193.585 1.00656C195.385 0.806555 197.185 0.606558 199.385 0.606558ZM199.385 96.6066H248.985C250.385 96.6066 251.385 95.6066 251.385 94.4066V47.0066C251.385 45.6066 250.385 44.4066 248.985 44.4066H199.385C198.185 44.4066 197.185 45.6066 197.185 47.0066V94.4066C197.185 95.6066 198.185 96.6066 199.385 96.6066ZM447.832 46.8066C447.832 72.0066 427.232 91.8066 402.032 92.2066H399.832V92.4066C399.232 92.4066 398.632 92.6066 398.232 93.0066C397.232 93.8066 397.232 95.2066 398.232 96.2066C398.632 96.6066 399.232 96.8066 399.832 96.8066H427.632C454.832 96.8066 454.832 140.807 427.632 140.807H399.832C387.632 140.807 375.832 135.807 367.232 127.207C358.232 118.207 355.032 105.807 355.032 94.0066C355.032 90.4066 350.432 90.4066 350.432 94.2066V120.207C350.432 147.607 306.432 147.607 306.432 120.207C306.432 87.0066 306.432 54.4066 306.432 21.0066C306.432 7.40657 317.232 0.606558 328.232 0.606558H401.032C426.232 0.606558 447.832 20.8066 447.832 46.8066ZM401.432 44.4066C384.432 44.4066 367.432 44.4066 350.432 44.4066V49.0066C367.432 49.0066 384.232 49.0066 401.232 49.0066C402.632 49.0066 404.032 48.2066 403.832 46.6066C403.832 45.2066 402.632 44.4066 401.432 44.4066ZM47.077 250.207H120.877C131.677 250.207 138.077 257.007 140.477 265.207C140.477 265.407 140.677 265.807 140.677 266.207C140.677 266.407 140.877 266.807 140.877 267.207C140.877 267.407 141.077 267.807 141.077 268.207C141.077 268.407 141.077 268.807 141.277 269.207C141.277 269.407 141.277 269.807 141.277 270.207C141.277 270.607 141.277 270.807 141.277 271.207C141.477 271.607 141.477 271.807 141.477 272.207C141.477 272.607 141.477 273.007 141.277 273.207C141.277 273.607 141.277 274.007 141.277 274.207C141.277 274.607 141.277 275.007 141.277 275.207C141.077 275.607 141.077 276.007 141.077 276.407C141.077 276.607 140.877 277.007 140.877 277.407C140.877 277.607 140.677 278.007 140.677 278.407C140.677 278.607 140.477 279.007 140.477 279.407C140.077 280.607 139.477 281.807 138.877 283.007C138.877 283.407 138.677 283.607 138.477 284.007C138.277 284.207 138.277 284.607 138.077 284.807C137.877 285.207 137.677 285.407 137.477 285.607C137.277 286.007 137.077 286.207 136.877 286.607C136.677 286.807 136.477 287.007 136.277 287.407C136.077 287.607 135.877 287.807 135.677 288.007C135.477 288.407 135.077 288.607 134.877 288.807C134.677 289.007 134.477 289.207 134.277 289.407H134.077C133.877 289.607 133.677 290.007 133.477 290.207C133.077 290.407 132.877 290.607 132.677 290.807C132.277 291.007 132.077 291.007 131.677 291.207C131.477 291.407 131.077 291.607 130.877 291.807C130.477 292.007 130.277 292.207 129.877 292.207C129.477 292.407 129.277 292.607 128.877 292.607C128.477 292.807 128.277 293.007 127.877 293.007C127.477 293.207 127.277 293.207 126.877 293.407C126.477 293.407 126.077 293.607 125.677 293.607C125.277 293.807 124.877 293.807 124.677 293.807C124.277 294.007 123.877 294.007 123.477 294.007C123.077 294.007 122.677 294.207 122.277 294.207C121.677 294.207 121.277 294.207 120.877 294.207H47.077C43.877 294.207 43.877 298.807 47.077 298.807H120.877C148.277 298.807 148.277 342.607 120.877 342.607H46.877C44.677 342.607 42.877 342.607 41.077 342.207C31.277 341.007 21.677 336.607 14.277 329.207C5.27695 320.207 0.676953 308.207 0.876953 296.407C0.876953 271.807 0.876953 247.207 0.876953 222.607C0.876953 195.407 44.677 195.407 44.677 222.607V248.007C44.677 249.407 45.677 250.207 47.077 250.207ZM198.394 295.007C196.994 295.007 195.794 296.007 195.794 297.407V322.607C195.794 350.007 151.994 350.007 151.994 322.607C151.994 298.207 151.994 273.607 151.994 249.007C151.994 237.007 156.394 225.207 165.394 216.207C172.994 208.607 182.394 204.407 192.194 203.007C193.994 202.607 195.994 202.607 197.994 202.607H272.194C299.394 202.607 299.394 246.607 272.194 246.607H198.194C195.194 246.607 195.194 251.207 198.194 251.207H272.194C272.594 251.207 272.994 251.207 273.394 251.207C273.794 251.207 274.194 251.207 274.594 251.407C274.994 251.407 275.394 251.407 275.794 251.407C276.194 251.607 276.594 251.607 276.994 251.607C277.394 251.807 277.594 251.807 277.994 252.007C278.394 252.007 278.794 252.207 279.194 252.207C279.394 252.407 279.794 252.607 280.194 252.607C280.394 252.807 280.794 253.007 281.194 253.007C281.394 253.207 281.794 253.407 281.994 253.607C282.394 253.807 282.594 253.807 282.994 254.007C283.194 254.207 283.594 254.407 283.794 254.607C283.994 254.807 284.394 255.007 284.594 255.207C284.794 255.407 285.194 255.607 285.394 255.807C285.594 256.207 285.994 256.407 286.194 256.607C286.394 256.807 286.594 257.007 286.794 257.207C286.994 257.607 287.194 257.807 287.594 258.007C287.794 258.207 287.994 258.607 288.194 258.807C288.394 259.007 288.594 259.407 288.794 259.607C288.794 260.007 288.994 260.207 289.194 260.407C289.394 260.807 289.594 261.007 289.794 261.407C289.994 261.607 289.994 262.007 290.194 262.207C290.794 263.407 291.194 264.807 291.594 266.007C291.794 266.407 291.794 266.607 291.794 267.007C291.994 267.407 291.994 267.607 292.194 268.007C292.194 268.407 292.194 268.607 292.194 269.007C292.394 269.407 292.394 269.807 292.394 270.007C292.394 270.407 292.594 270.807 292.594 271.007C292.594 271.407 292.594 271.807 292.594 272.007C292.594 272.407 292.594 272.807 292.594 273.207C292.594 273.407 292.594 273.807 292.594 274.207C292.594 274.407 292.594 274.807 292.594 275.207C292.594 275.607 292.394 275.807 292.394 276.207C292.394 276.607 292.394 276.807 292.194 277.207C292.194 277.607 292.194 277.807 292.194 278.207C291.994 278.607 291.994 278.807 291.794 279.207C291.794 279.607 291.794 279.807 291.594 280.207C289.394 288.407 282.794 295.007 272.194 295.007H198.394ZM349.721 202.607H399.521C401.721 202.607 403.521 202.807 405.321 203.007C415.121 204.407 423.921 207.807 432.121 216.207C440.321 224.407 445.721 237.007 445.721 248.807V296.407C445.721 308.207 440.321 320.807 432.121 329.007C423.921 337.407 415.121 341.007 405.321 342.207C403.521 342.607 401.721 342.607 399.521 342.607H349.721C347.521 342.607 345.721 342.607 343.921 342.207C334.121 341.007 325.321 337.407 317.121 329.007C308.721 320.807 303.521 308.207 303.521 296.407V248.807C303.521 237.007 308.721 224.407 317.121 216.207C325.321 207.807 334.121 204.407 343.921 203.007C345.721 202.807 347.521 202.607 349.721 202.607ZM349.721 298.607H399.321C400.721 298.607 401.721 297.607 401.721 296.407V249.007C401.721 247.607 400.721 246.407 399.321 246.407H349.721C348.521 246.407 347.521 247.607 347.521 249.007V296.407C347.521 297.607 348.521 298.607 349.721 298.607ZM47.077 544.607C35.277 544.607 22.677 539.407 14.277 531.207C6.07695 522.807 2.47695 514.007 1.27695 504.207C0.876953 502.407 0.876953 500.607 0.876953 498.407V425.207C0.876953 397.807 44.677 397.807 44.677 425.207V498.407C44.677 499.607 45.677 500.807 47.077 500.807C71.477 500.807 91.677 500.807 116.077 500.807C143.477 500.807 143.477 544.607 116.077 544.607C91.677 544.607 71.477 544.607 47.077 544.607ZM195.111 448.607H167.511C140.311 448.607 140.311 404.607 167.511 404.607C200.511 404.607 233.511 404.607 266.511 404.607C293.711 404.607 293.711 448.607 266.511 448.607H238.911V500.807H266.511C293.711 500.807 293.711 544.607 266.511 544.607C233.511 544.607 200.511 544.607 167.511 544.607C140.311 544.607 140.311 500.807 167.511 500.807H195.111V448.607ZM344.252 404.607H394.052C396.252 404.607 398.052 404.807 399.852 405.007C409.652 406.407 418.452 409.807 426.652 418.207C434.852 426.407 440.252 439.007 440.252 450.807V498.407C440.252 510.207 434.852 522.807 426.652 531.007C418.452 539.407 409.652 543.007 399.852 544.207C398.052 544.607 396.252 544.607 394.052 544.607H344.252C342.052 544.607 340.252 544.607 338.452 544.207C328.652 543.007 319.852 539.407 311.652 531.007C303.252 522.807 298.052 510.207 298.052 498.407V450.807C298.052 439.007 303.252 426.407 311.652 418.207C319.852 409.807 328.652 406.407 338.452 405.007C340.252 404.807 342.052 404.607 344.252 404.607ZM344.252 500.607H393.852C395.252 500.607 396.252 499.607 396.252 498.407V451.007C396.252 449.607 395.252 448.407 393.852 448.407H344.252C343.052 448.407 342.052 449.607 342.052 451.007V498.407C342.052 499.607 343.052 500.607 344.252 500.607Z" fill="white"/>
</svg>
