<svg width="503" height="1086" viewBox="0 0 503 1086" fill="none" xmlns="http://www.w3.org/2000/svg">
<path opacity="0.5" d="M-1 1C43.8411 25.0111 346.031 -8.00415 307.038 267.623C281.462 448.413 53.0161 303.071 127.674 219.101C234.416 99.0452 330.434 358.665 276.82 411.189C223.205 463.713 103.665 410.881 62.3624 497.729C28.048 569.883 158.843 646.251 84.7829 702.323C25.3198 747.344 48.2277 844.889 84.7829 864.898C144.395 897.528 324.998 822.879 268.047 916.922C180.801 1060.99 259.273 1083.5 335.308 1065.49C411.343 1047.48 487.865 1001.96 502 1085" stroke="url(#paint0_linear_39_315)" stroke-dasharray="10 5"/>
<defs>
<linearGradient id="paint0_linear_39_315" x1="-1" y1="1" x2="826.768" y2="385.103" gradientUnits="userSpaceOnUse">
<stop stop-color="#DB77FE"/>
<stop offset="1" stop-color="#52027A"/>
</linearGradient>
</defs>
</svg>
